<?xml version="1.0" encoding="UTF-8"?>
<svg width="400pt" height="400pt" version="1.1" viewBox="0 0 1200 1200" xmlns="http://www.w3.org/2000/svg">
 <path d="m1027.5 869.99c-7.4141-26.27-23.293-47.723-37.895-69.996-3.8984-5.9141-8.2812-11.867-8.4258-19.332-0.38281-21.371-0.023437-42.742-1.3789-64.129-1.0781-16.609 0.875-33.434-0.53906-49.992-1.6797-19.02 2.0039-34.766 18.59-45.898 0.43359-0.27734 0.71875-0.75781 1.1289-1.1172 2.5078-2.0898 3.4219-4.9062 2.5078-7.8477-1.8828-5.9883-1.0664-12.059-1.2344-18.109 0.25391-0.42188 0.46875-0.83984 0.69531-1.2734-0.22656 0.12109-0.45703 0.21484-0.69531 0.32422-0.49219-18.059-0.99609-36.156-1.4766-54.227-0.023438 0-0.023438 0-0.035157-0.023437-0.046874-3.6719-0.52734-7.3906-0.046874-10.992 1.5117-11.484-1.7031-20.195-12.203-26.41-3.875-2.3047-8.1719-5.5781-8.5781-11.496-0.92578-13.246-1.1172-13.246-14.172-17.172-2.7461-0.82812-5.4727-1.6914-8.2188-2.5312-0.39453-0.34766-0.81641-0.55078-1.2344-0.74219 0.39453-0.070313 0.80469-0.13281 1.2344-0.21484 1.7148-3.457 0.99609-7.1758 1.0078-10.777 0.10938-13.715 0.035156-13.715-13.43-12.695-5.125 0.46875-6.9609-1.3672-7.0938-6.9727-0.53906-26.797-1.668-53.566-2.5938-80.34 0.48047-11.184-1.8828-21.984-4.7148-32.676-8.4102-31.848-24.516-59.809-43.559-86.316-10.656-14.797-22.68-28.523-35.387-41.426-9.7188-9.875-21.422-17.832-32.953-25.738-49.934-34.234-101.98-62.914-164.84-63.422-5.1094-0.074218-7.6289-2.2109-7.5-7.7773 0.27734-12.156 0.14453-24.324 0.058594-36.492-0.035156-2.207 0.88672-5.8906-2.1484-5.9648-5.6758-0.13281-12.098-3.457-16.859 2.5781-0.99609 8.0742-0.68359 16.211-0.68359 24.324-0.023438 64.402 0 128.79-0.070313 193.18 0 3.5898 0.94922 7.4297-1.4883 10.754-2.7969 2.0039-6.0352 1.4414-9.0703 1.2969-12.406-0.5625-24.91 1.5859-37.262-1.1992-2.5312-3.2539-1.5586-7.0781-1.5859-10.691-0.50391-72.551 0.86328-145.11-0.75781-217.67-2.1133-4.5703-6.3125-2.6641-9.7578-3.1562-6.9375-0.99609-10.008 1.1875-9.457 8.9297 0.71875 9.7305 0.17969 19.559 0.16797 29.328 0 12.469 0 12.695-12.156 12.492-9.2773-0.15625-18.434 0.92578-27.469 2.543-42.574 7.6211-80.328 26.711-116.35 49.691-17.566 11.195-35.258 22.68-49.777 37.523-25.68 26.258-48.023 55.297-63.996 88.777-10.738 22.512-18.875 45.73-19.129 71.062-0.92578 26.785-2.0508 53.555-2.5938 80.328-0.12109 5.6172-1.9336 7.4648-7.0664 6.9844-3.1211-0.28906-6.2773-0.34766-9.3242-0.94922-2.5547-0.51563-4.2734-0.32422-4.1055 2.6758 0.39453 7.2461-1.1523 14.594 0.99609 21.742 0.38281 0.097656 0.76953 0.15625 1.1641 0.23828-0.38281 0.19141-0.76953 0.42187-1.1641 0.71875-5.9766 1.9219-11.914 3.9492-17.914 5.7109-3.2148 0.94922-5.1484 2.6055-4.5117 6.1094 1.957 10.789-4.1641 16.98-12.238 22.355-6 4.0078-9.4922 9.2656-8.543 17.148 0.67188 5.6875 0.035156 11.52 0 17.293-0.011718 0.011719-0.011718 0.011719-0.023437 0.023437-0.50391 18.07-0.98438 36.145-1.4883 54.215-0.21484-0.10938-0.40625-0.20312-0.60156-0.28906 0.20312 0.40625 0.35938 0.82812 0.60156 1.2461-2.6992 15.973-0.22656 29.977 14.734 39.457 5.1719 3.2891 6.0234 8.4258 6.1328 14.438 0.69531 39.91-2.125 79.789-1.4648 119.7 0.25391 14.281-3.5039 26.219-11.746 37.523-19.598 26.879-36 55.344-40.152 89.219-2.5195 20.531-0.23828 40.234 9.4453 59.102 9.4219 18.359 27.086 28.367 40.777 42.336 9.6133 9.793 21.277 17.258 33.289 23.988 2.293 1.2734 3.1328 3.4922 4.2617 5.543 30.805 57.215 77.484 94.453 140.34 111.18 28.691 7.6445 57.648 10.043 86.398 0.98438 41.195-12.984 66.191-41.844 77.965-82.656 1.5234-5.2812 3.6836-6.5273 8.6406-6.6367 11.902-0.26562 23.617 2.1484 35.543 1.7773 9.2266-0.30078 18.289-2.293 27.602-1.8125 4.9336 0.25391 7.1758 1.332 8.6406 6.6836 8.3047 30.156 24.742 54.973 51.961 71.039 28.344 16.738 59.016 20.207 91.523 14.82 63.109-10.441 112.88-41.797 148.49-94.43 10.754-15.875 20.855-31.008 38.051-40.559 10.141-5.6289 16.906-15.719 26.027-22.68 12.395-9.4922 22.957-20.207 29.352-34.523 11.512-25.719 9.2656-51.699 1.8398-78.027zm-532.31 193.62c-7.2852 10.344-15.527 20.113-24.91 28.645-17.977 16.297-46.105 15.359-63.254-1.7148-2.3047-2.3164-4.9453-3.8281-7.5977-5.5195-26.473-16.895-32.508-40.848-5.3633-63.516 16.152-13.488 35.652-14.676 58.633-13.621 7.957 0.68359 18.996 1.6914 30.086 2.4492 3.4336 0.22656 5.9297 1.5117 8.2305 3.9609 13.477 14.238 15.457 33.258 4.1758 49.316zm138.34-55.227c-4.5703 9.5625-10.176 8.6289-17.363 7.9922-2.7344-0.25391-3.9492 1.0078-4.2461 3.4062-0.625 5.4102-3.5625 5.543-7.8477 3.9102-1.8711-0.69531-4.332-0.85156-6.2266-0.26562-5.125 1.6211-9.0977 2.3633-10.152-4.8945-0.55078-3.8633-4.332-1.8828-6.6719-1.9062-5.2812-0.085938-10.273 2.5781-12.613-6.5039-1.4414-5.6172-7.7539-10.164-6.6367-17.555 1.5234-10.043 9.0977-17.172 12.348-26.352 0.64844-1.7891 2.5195-1.6328 4.0781-1.7539 7.6328-0.625 15.277-1.2109 22.922-1.8359 0.011719 0.10938 0.011719 0.20312 0.011719 0.26562 0.52734 0 1.0547-0.011719 1.5977 0 22.715 0.76953 23.016 0.89844 32.879 21.254 4.1133 8.4844 2.0977 15.43-2.0781 24.238zm183.86 61.008c-11.113 14.305-25.883 24.406-42.359 31.789-5.0625 2.2578-10.836 2.2812-16.391 2.5547-12.422 0.23828-22.727-4.8711-31.066-13.547-7.6797-7.9688-15.059-16.32-21.684-25.188-12.168-16.32-10.895-34.945 2.5781-49.969 1.7539-1.9805 3.3711-4.2344 6.3008-4.4297 20.785-1.4297 41.543-5.2578 62.41-1.7539 16.836 2.8203 30.551 10.848 40.414 25.32 8.2578 12.09 8.4141 24.102-0.20312 35.223zm68.027-461.29c-5.7852 19.922-5.1016 15.84-19.547 9.3594-21.961-9.8516-41.809-23.688-63.348-34.414-34.895-17.41-72.023-28.836-109.64-38.496-28.379-7.2852-53.23 10.586-59.16 42.781-8.7461 47.566-16.344 95.34-24.406 143-0.42188 2.4844-1.6094 4.8008 2.3516 6.2383 32.051 11.531 60.793 29.23 88.633 48.457 15.012 10.367 29.531 21.457 44.184 32.305 21.898 16.262 44.988 30.562 69.602 42.348 1.1992 0.71875 3.6016 0.17969 3.2656 2.4961-0.23828 1.7266-2.0391 1.2461-3.2539 1.2461-1.5117 0-3.2031 0.52734-4.4023-0.97266-52.078-18.254-101.3-43.141-151.68-65.438-38.34-16.98-77.664-16.992-116 0-43.859 19.488-86.965 40.621-131.64 58.223-6.6016 2.5938-13.355 4.8242-20.039 7.2227-1.3555 1.668-3.2383 0.88672-4.8945 0.97266-1.1641 0.070312-2.8203 0.25391-2.8086-1.5117 0.011719-2.0156 2.125-1.6094 3.3242-2.2578 24.625-11.762 47.699-26.074 69.602-42.324 14.652-10.859 29.16-21.949 44.172-32.305 27.84-19.234 56.578-36.949 88.645-48.48 4.6094-1.6445 2.6172-4.4883 2.207-6.9961-6.6719-39.336-13.367-78.695-20.23-117.97-1.957-11.16-2.7344-22.523-6.5508-33.359-9.9492-28.262-32.293-40.223-61.285-32.664-53.988 14.09-105.41 34.164-152.83 63.949-7.3438 4.6094-15.602 7.7539-23.363 11.676-4.1758 2.1133-6.625 1.0938-8.4258-3.3242-4.1289-10.129-6.5391-20.676-7.5977-31.488-2.2812-23.426-4.7266-46.906 0.69531-70.262 0.82812-3.5898 1.9453-7.1523 3.3594-10.559 4.1055-9.9258 7.2969-11.746 18.098-11.426 93.035 2.7734 185.99 6.9961 279.1 6.7578 85.715-0.23828 171.25-4.3672 256.88-6.9961 8.6172-0.26562 13.488 2.9766 16.715 10.199 3.7422 8.3047 5.9766 17.125 6.4453 26.074 1.3594 26.191 1.2305 52.52-6.1641 77.938z"/>
</svg>
