<svg height="20" viewBox="0 0 19 20" width="19" xmlns="http://www.w3.org/2000/svg"><path d="m18.8939465 7441.658c2.4780462 1.72 4.1060535 4.588 4.1060535 7.825 0 5.242-4.2679657 9.517-9.4995064 9.517-5.23252789 0-9.5004936-4.275-9.5004936-9.517 0-3.365 1.75931411-6.331 4.40420889-8.024-.87866979 2.409-2.31712133 3.937-1.66651079 6.501.5489218 2.164 2.2697324 3.598 3.8286308 3.192 1.3397246-.349 2.1354638-1.947 1.9844116-3.762-.1490777-1.789-1.2212523-2.771-2.55505331-4.014l.97246041-1.294 1.8965445 1.977-.8352299-2.697 1.5776565-2.362 1.447337 2.323-.8776825 2.877 1.8955573-2.08.8915043 1.195c-1.0159003 1.273-2.3032996 2.054-2.3299559 3.847-.0207326 1.405.5943362 3.647 1.9093791 3.99 1.5588984.406 3.2787217-1.028 3.8286308-3.192.5745908-2.264-.776981-4.258-1.4779423-6.302" fill-rule="evenodd" transform="translate(-4 -7439)"/></svg>