<svg xmlns="http://www.w3.org/2000/svg" xmlns:xlink="http://www.w3.org/1999/xlink" width="500" zoomAndPan="magnify" viewBox="0 0 375 374.999991" height="500" preserveAspectRatio="xMidYMid meet" version="1.0"><defs><clipPath id="4118f79326"><path d="M 48 122 L 140.542969 122 L 140.542969 255 L 48 255 Z M 48 122 " clip-rule="nonzero"/></clipPath><clipPath id="414d660e86"><path d="M 234.839844 119 L 326.996094 119 L 326.996094 252 L 234.839844 252 Z M 234.839844 119 " clip-rule="nonzero"/></clipPath><clipPath id="b44580ad14"><path d="M 178 96 L 230 96 L 230 151 L 178 151 Z M 178 96 " clip-rule="nonzero"/></clipPath><clipPath id="1f776ef578"><path d="M 81.113281 167.5 L 210.503906 78.1875 L 299.816406 207.582031 L 170.421875 296.894531 Z M 81.113281 167.5 " clip-rule="nonzero"/></clipPath><clipPath id="f3956ad036"><path d="M 81.113281 167.5 L 210.503906 78.1875 L 299.816406 207.582031 L 170.421875 296.894531 Z M 81.113281 167.5 " clip-rule="nonzero"/></clipPath><clipPath id="e5ecffdf7b"><path d="M 149 175 L 212 175 L 212 282 L 149 282 Z M 149 175 " clip-rule="nonzero"/></clipPath><clipPath id="d9ec4457e1"><path d="M 81.113281 167.5 L 210.503906 78.1875 L 299.816406 207.582031 L 170.421875 296.894531 Z M 81.113281 167.5 " clip-rule="nonzero"/></clipPath><clipPath id="0e7c92de0d"><path d="M 81.113281 167.5 L 210.503906 78.1875 L 299.816406 207.582031 L 170.421875 296.894531 Z M 81.113281 167.5 " clip-rule="nonzero"/></clipPath><clipPath id="222e206478"><path d="M 172 167 L 213 167 L 213 181 L 172 181 Z M 172 167 " clip-rule="nonzero"/></clipPath><clipPath id="7700f423ff"><path d="M 81.113281 167.5 L 210.503906 78.1875 L 299.816406 207.582031 L 170.421875 296.894531 Z M 81.113281 167.5 " clip-rule="nonzero"/></clipPath><clipPath id="d80a8f9b27"><path d="M 81.113281 167.5 L 210.503906 78.1875 L 299.816406 207.582031 L 170.421875 296.894531 Z M 81.113281 167.5 " clip-rule="nonzero"/></clipPath><clipPath id="b650f9dd14"><path d="M 174 157 L 215 157 L 215 171 L 174 171 Z M 174 157 " clip-rule="nonzero"/></clipPath><clipPath id="1900924a09"><path d="M 81.113281 167.5 L 210.503906 78.1875 L 299.816406 207.582031 L 170.421875 296.894531 Z M 81.113281 167.5 " clip-rule="nonzero"/></clipPath><clipPath id="4b2dad41bd"><path d="M 81.113281 167.5 L 210.503906 78.1875 L 299.816406 207.582031 L 170.421875 296.894531 Z M 81.113281 167.5 " clip-rule="nonzero"/></clipPath><clipPath id="e86340e9fa"><path d="M 176 147 L 217 147 L 217 161 L 176 161 Z M 176 147 " clip-rule="nonzero"/></clipPath><clipPath id="00dc8b6ff7"><path d="M 81.113281 167.5 L 210.503906 78.1875 L 299.816406 207.582031 L 170.421875 296.894531 Z M 81.113281 167.5 " clip-rule="nonzero"/></clipPath><clipPath id="20e7dda516"><path d="M 81.113281 167.5 L 210.503906 78.1875 L 299.816406 207.582031 L 170.421875 296.894531 Z M 81.113281 167.5 " clip-rule="nonzero"/></clipPath></defs><rect x="-37.5" width="450" fill="#ffffff" y="-37.499999" height="449.999989" fill-opacity="1"/><rect x="-37.5" width="450" fill="#000000" y="-37.499999" height="449.999989" fill-opacity="1"/><g clip-path="url(#4118f79326)"><path fill="#ffffff" d="M 121.878906 140.476562 L 73.550781 188.800781 L 121.878906 237.128906 C 125.960938 241.207031 125.960938 247.816406 121.878906 251.898438 C 119.839844 253.9375 117.164062 254.957031 114.492188 254.957031 C 111.820312 254.957031 109.148438 253.9375 107.109375 251.898438 L 51.394531 196.1875 C 47.316406 192.105469 47.316406 185.496094 51.394531 181.414062 L 107.109375 125.703125 C 111.1875 121.625 117.796875 121.625 121.878906 125.703125 C 125.960938 129.785156 125.960938 136.394531 121.878906 140.476562 Z M 233.300781 125.703125 C 229.222656 121.625 222.609375 121.625 218.53125 125.703125 C 214.449219 129.785156 214.449219 136.394531 218.53125 140.476562 L 266.855469 188.800781 L 218.53125 237.128906 C 214.449219 241.207031 214.449219 247.816406 218.53125 251.898438 C 220.570312 253.9375 223.242188 254.957031 225.917969 254.957031 C 228.589844 254.957031 231.261719 253.9375 233.300781 251.898438 L 289.011719 196.1875 C 293.09375 192.105469 293.09375 185.496094 289.011719 181.414062 Z M 233.300781 125.703125 " fill-opacity="1" fill-rule="nonzero"/></g><g clip-path="url(#414d660e86)"><path fill="#ffffff" d="M 156.46875 136.902344 L 108.140625 185.226562 L 156.46875 233.554688 C 160.546875 237.632812 160.546875 244.246094 156.46875 248.324219 C 154.425781 250.367188 151.753906 251.386719 149.082031 251.386719 C 146.410156 251.386719 143.734375 250.367188 141.695312 248.324219 L 85.984375 192.613281 C 81.902344 188.53125 81.902344 181.921875 85.984375 177.84375 L 141.695312 122.128906 C 145.777344 118.050781 152.386719 118.050781 156.46875 122.128906 C 160.546875 126.210938 160.546875 132.820312 156.46875 136.902344 Z M 267.890625 122.128906 C 263.808594 118.050781 257.199219 118.050781 253.121094 122.128906 C 249.039062 126.210938 249.039062 132.820312 253.121094 136.902344 L 301.445312 185.226562 L 253.121094 233.554688 C 249.039062 237.632812 249.039062 244.246094 253.121094 248.324219 C 255.160156 250.367188 257.832031 251.386719 260.503906 251.386719 C 263.175781 251.386719 265.851562 250.367188 267.890625 248.324219 L 323.601562 192.613281 C 327.683594 188.53125 327.683594 181.921875 323.601562 177.84375 Z M 267.890625 122.128906 " fill-opacity="1" fill-rule="nonzero"/></g><g clip-path="url(#b44580ad14)"><g clip-path="url(#1f776ef578)"><g clip-path="url(#f3956ad036)"><path fill="#ffffff" d="M 226.277344 103.382812 L 186.359375 96.070312 C 184.507812 95.730469 182.730469 96.957031 182.390625 98.808594 C 182.054688 100.640625 183.25 102.394531 185.066406 102.765625 L 183.269531 112.578125 C 182.929688 114.433594 184.15625 116.210938 186.007812 116.550781 L 192.734375 117.78125 L 188.886719 138.792969 L 182.15625 137.5625 C 180.304688 137.222656 178.527344 138.449219 178.1875 140.300781 C 177.847656 142.152344 179.074219 143.929688 180.925781 144.269531 L 214.261719 150.378906 C 215.1875 150.550781 216.09375 150.328125 216.8125 149.832031 C 217.53125 149.335938 218.058594 148.566406 218.230469 147.640625 C 218.570312 145.785156 217.34375 144.007812 215.488281 143.671875 L 208.761719 142.4375 L 212.613281 121.425781 L 219.339844 122.65625 C 220.265625 122.828125 221.175781 122.605469 221.894531 122.109375 C 222.609375 121.613281 223.140625 120.84375 223.308594 119.917969 L 225.109375 110.101562 C 226.011719 110.25 226.894531 110.03125 227.597656 109.546875 C 228.316406 109.050781 228.84375 108.28125 229.015625 107.355469 C 229.355469 105.5 228.128906 103.722656 226.277344 103.382812 Z M 202.050781 141.207031 L 195.59375 140.023438 L 199.445312 119.011719 L 205.902344 120.195312 Z M 217.214844 115.332031 L 190.59375 110.453125 L 191.777344 103.996094 L 218.398438 108.875 Z M 217.214844 115.332031 " fill-opacity="1" fill-rule="nonzero"/></g></g></g><g clip-path="url(#e5ecffdf7b)"><g clip-path="url(#d9ec4457e1)"><g clip-path="url(#0e7c92de0d)"><path fill="#ffffff" d="M 174.917969 177.0625 L 164.382812 175.132812 C 162.53125 174.792969 160.753906 176.019531 160.414062 177.871094 L 154.582031 209.703125 C 154.417969 210.59375 154.613281 211.511719 155.128906 212.253906 C 155.640625 213 156.429688 213.507812 157.320312 213.671875 L 164.5 214.988281 L 159.894531 240.109375 L 156.667969 239.515625 C 155.777344 239.351562 154.859375 239.550781 154.113281 240.0625 C 153.371094 240.578125 152.859375 241.367188 152.695312 242.257812 L 149.363281 260.457031 C 149.023438 262.308594 150.25 264.085938 152.101562 264.425781 L 155.332031 265.015625 L 154.136719 271.539062 C 153.796875 273.390625 155.023438 275.167969 156.875 275.507812 L 190.210938 281.617188 C 191.097656 281.78125 192.015625 281.582031 192.761719 281.070312 C 193.503906 280.554688 194.015625 279.765625 194.179688 278.875 L 195.375 272.355469 L 198.601562 272.949219 C 199.527344 273.117188 200.4375 272.894531 201.15625 272.398438 C 201.875 271.90625 202.402344 271.132812 202.574219 270.207031 L 205.90625 252.007812 C 206.246094 250.15625 205.019531 248.378906 203.167969 248.039062 L 199.9375 247.445312 L 210.992188 187.140625 C 211.152344 186.25 210.957031 185.332031 210.445312 184.589844 C 209.929688 183.84375 209.140625 183.335938 208.25 183.171875 Z M 161.90625 207.578125 L 166.507812 182.457031 L 170.332031 183.15625 L 165.730469 208.277344 Z M 183.082031 251.292969 L 180.976562 262.78125 L 172.1875 261.171875 L 174.292969 249.683594 Z M 158.792969 246.839844 L 167.582031 248.453125 L 165.476562 259.941406 L 159.917969 258.921875 C 159.917969 258.921875 159.914062 258.921875 159.914062 258.921875 L 156.6875 258.332031 Z M 188.082031 274.292969 L 161.460938 269.414062 L 162.039062 266.246094 L 188.664062 271.125 Z M 196.476562 265.625 L 187.6875 264.011719 L 189.792969 252.523438 L 198.582031 254.132812 Z M 193.230469 246.21875 L 187.667969 245.199219 L 172.167969 242.355469 L 166.605469 241.339844 L 171.824219 212.863281 C 171.824219 212.863281 171.824219 212.859375 171.824219 212.859375 L 177.042969 184.386719 L 203.667969 189.265625 Z M 193.230469 246.21875 " fill-opacity="1" fill-rule="nonzero"/></g></g></g><g clip-path="url(#222e206478)"><g clip-path="url(#7700f423ff)"><g clip-path="url(#d80a8f9b27)"><path fill="#ffffff" d="M 176.726562 167.1875 C 174.875 166.847656 173.097656 168.074219 172.757812 169.925781 C 172.417969 171.78125 173.644531 173.558594 175.5 173.898438 L 208.832031 180.003906 C 209.757812 180.175781 210.664062 179.953125 211.382812 179.457031 C 212.101562 178.960938 212.628906 178.191406 212.800781 177.265625 C 213.140625 175.414062 211.914062 173.636719 210.0625 173.296875 Z M 176.726562 167.1875 " fill-opacity="1" fill-rule="nonzero"/></g></g></g><g clip-path="url(#b650f9dd14)"><g clip-path="url(#1900924a09)"><g clip-path="url(#4b2dad41bd)"><path fill="#ffffff" d="M 178.539062 157.3125 C 176.683594 156.972656 174.910156 158.199219 174.566406 160.050781 C 174.226562 161.902344 175.457031 163.679688 177.308594 164.019531 L 210.640625 170.128906 C 211.566406 170.300781 212.476562 170.078125 213.195312 169.582031 C 213.910156 169.085938 214.441406 168.316406 214.609375 167.390625 C 214.949219 165.539062 213.722656 163.761719 211.871094 163.421875 Z M 178.539062 157.3125 " fill-opacity="1" fill-rule="nonzero"/></g></g></g><g clip-path="url(#e86340e9fa)"><g clip-path="url(#00dc8b6ff7)"><g clip-path="url(#20e7dda516)"><path fill="#ffffff" d="M 180.347656 147.4375 C 178.496094 147.097656 176.71875 148.324219 176.378906 150.175781 C 176.039062 152.027344 177.265625 153.804688 179.117188 154.144531 L 212.449219 160.253906 C 213.378906 160.425781 214.285156 160.203125 215.003906 159.707031 C 215.722656 159.210938 216.25 158.441406 216.421875 157.515625 C 216.761719 155.664062 215.535156 153.886719 213.679688 153.546875 Z M 180.347656 147.4375 " fill-opacity="1" fill-rule="nonzero"/></g></g></g></svg>